<svg role="img" viewBox="0 0 24 24" xmlns="http://www.w3.org/2000/svg"><style>path,circle{fill:#4D6BFE}@media (prefers-color-scheme:dark){path,circle{fill:#7C93FF}}</style><title>DeepSeek</title><path d="M22.5 7.3c-.5-.3-.8.2-1.1.5-.1.1-.2.2-.3.4-.7.8-1.6 1.3-2.7 1.2-1.6-.1-3-.6-4.3-1.6-.3-.2-.5-.4-.8-.6-1.1-1-2.4-1.7-3.9-2-1.9-.4-3.7-.2-5.4.8C1.6 7.4.4 9.3.2 11.7c-.2 2.6.7 4.8 2.6 6.5 1.6 1.4 3.5 2.1 5.6 2.1 3 0 5.4-1.2 7.3-3.6.9-1.1 1.5-2.4 1.8-3.8.1-.4.1-.5.5-.5.9-.1 1.7-.4 2.4-1 1-.8 1.6-1.9 1.8-3.2.1-.4 0-.9-.3-1.1zM11.5 16.8c-.3-.2-.5-.5-.7-.7-1-1.4-1.6-2.9-1.5-4.6 0-.6.2-1.2.5-1.7.1-.2.2-.3.4-.3.3 0 .4.2.5.4.1.2.2.4.2.6.2.7.5 1.3.9 1.9.5.8 1.1 1.5 1.7 2.2.2.2.2.3 0 .5-.8.7-1.6 1.1-2.5.3zm1.3-2.5c-.5-.4-1-1-1.3-1.7-.1-.2-.1-.4.1-.6.2-.1.4-.1.6 0 .5.3.9.7 1.1 1.3.1.3 0 .6-.2.8-.1.1-.2.2-.3.2z"/><circle cx="14.4" cy="9.9" r=".8"/></svg>
